<?xml version="1.0" standalone="no"?>
<!DOCTYPE svg PUBLIC "-//W3C//DTD SVG 20010904//EN"
 "http://www.w3.org/TR/2001/REC-SVG-20010904/DTD/svg10.dtd">
<svg version="1.0" xmlns="http://www.w3.org/2000/svg"
 width="360.000000pt" height="360.000000pt" viewBox="0 0 360.000000 360.000000"
 preserveAspectRatio="xMidYMid meet">

<g transform="translate(0.000000,360.000000) scale(0.100000,-0.100000)"
fill="#000000" stroke="none">
<path d="M445 2735 c-5 -2 -23 -6 -38 -9 -27 -6 -22 -12 110 -124 76 -65 385
-328 686 -585 l548 -467 49 0 49 0 418 356 c230 196 538 458 684 583 218 185
263 228 250 236 -15 9 -2730 19 -2756 10z"/>
<path d="M261 2579 c-15 -44 -15 -1493 0 -1553 14 -55 59 -110 112 -139 l42
-22 1355 -3 c971 -2 1370 1 1409 9 43 9 63 20 100 58 28 28 51 62 59 87 9 31
12 227 12 780 0 718 -4 821 -31 812 -5 -2 -316 -264 -690 -583 -404 -344 -699
-589 -727 -602 -64 -31 -141 -30 -207 1 -32 15 -301 239 -730 605 -374 320
-683 581 -687 581 -3 0 -11 -14 -17 -31z"/>
</g>
</svg>
